# xmcd CD database file
#
# Track frame offsets:
#	150
#	15663
#	26277
#	37028
#	48603
#	61866
#	72971
#	85792
#	98434
#	112509
#	125300
#	136503
#	146564
#	157576
#	172346
#	184925
#	198980
#	211288
#	238555
#	258024
#	266270
#	278848
#	287764
#	306473
#	315419
#
# Disc length: 4317 seconds
#
# Revision: 0
# Processed by: cddbd v1.5.2PL0 Copyright (c) Steve Scherf et al.
# Submitted via: CDex 1.82
#
DISCID=4b10db19
DTITLE=Louis Prima - The very best of Louis Prima - CD2
DYEAR=2016
DGENRE=Jazz
TTITLE0=Jump jive an' wail
TTITLE1=Allright, OK, you win
TTITLE2=Sentimental journey
TTITLE3=Just one of these things
TTITLE4=Felicia no capica
TTITLE5=Gotta see you baby tonight
TTITLE6=Moonglow
TTITLE7=Hey boy!, Hey girl!
TTITLE8=Wonderland by night
TTITLE9=Cheeck to cheeck
TTITLE10=Lazy river
TTITLE11=Blow, Red, blow
TTITLE12=I have grown accustomed to her face
TTITLE13=Greenback dollar bill
TTITLE14=Autumn leaves
TTITLE15=Come back to Sorrento
TTITLE16=Everybody knows
TTITLE17=On the sunny side of the street
TTITLE18=Don'r worry 'bout me/I'm in the mood for love
TTITLE19=Let's twist again
TTITLE20=Make love to me
TTITLE21=All I do is dream of you
TTITLE22=Basin street blues/When it's sleepy time down south
TTITLE23=Night train
TTITLE24=Too marvelous for words
EXTD=YEAR: 2016
EXTT0=
EXTT1=
EXTT2=
EXTT3=
EXTT4=
EXTT5=
EXTT6=
EXTT7=
EXTT8=
EXTT9=
EXTT10=
EXTT11=
EXTT12=
EXTT13=
EXTT14=
EXTT15=
EXTT16=
EXTT17=
EXTT18=
EXTT19=
EXTT20=
EXTT21=
EXTT22=
EXTT23=
EXTT24=
PLAYORDER=
